<svg width="182" height="40" fill="none" xmlns="http://www.w3.org/2000/svg"><g clip-path="url(#clip0)"><path d="M21.652.562a.5.5 0 00-.5-.503h-9.53a.5.5 0 00-.5.5v9.88a.5.5 0 00.045.208l2.44 5.341a.5.5 0 01.045.208v23.492a.5.5 0 00.5.5h6.826a.5.5 0 00.5-.5V23.803c0-.504.662-.69.926-.262l10.108 16.41a.5.5 0 00.426.237h7.048a.5.5 0 00.5-.499l.058-23.5c0-.067.014-.134.04-.196l2.39-5.585a.5.5 0 00.041-.2L42.96.556a.5.5 0 00-.5-.497h-9.243a.5.5 0 00-.5.499l-.054 25.688c-.002.502-.66.69-.925.263L21.672 10.317a.5.5 0 01-.075-.267l.055-9.488z" fill="#0072B4"/><path d="M43.915.74c-.018-.253.189-.47.442-.494 16.995-1.672 11.183 15.388-2.379 25.632a.468.468 0 01-.757-.396c.01-.23.021-.461.026-.692a.525.525 0 01.235-.426c2.877-1.908 8.012-7.181 10.36-12.343 2.724-6.032 2.71-11.207-7.334-10.414a.511.511 0 01-.552-.439 9.788 9.788 0 01-.04-.428zM23.597.5a.5.5 0 01.5-.5h6.355a.5.5 0 01.5.5v19.918c0 .506-.666.692-.928.258l-6.355-10.54a.5.5 0 01-.072-.258V.5zM11.12 13.733c.197-.168.495-.155.616.074.075.141.138.29.21.433.127.256.104.603-.106.797-18.884 17.334-8.29 23.645.502 22.353.292-.043.568.166.572.462.003.167 0 .306.004.478a.528.528 0 01-.487.538c-16.808 1.03-15.888-12.783-1.311-25.135zm12.505 26.455a.5.5 0 01-.5-.5V29.147c0-.507.668-.692.929-.258L30.38 39.43a.5.5 0 01-.428.758h-6.326z" fill="#2B2B2B"/><path d="M63.935 17.03a.5.5 0 00.5-.5v-6.484a.5.5 0 01.5-.5h3.296a.5.5 0 01.5.5v6.484a.5.5 0 00.5.5h2.06a.5.5 0 00.5-.5V1.09a.5.5 0 00-.5-.5h-2.06a.5.5 0 00-.5.5v5.54a.5.5 0 01-.5.5h-3.296a.5.5 0 01-.5-.5V1.09a.5.5 0 00-.5-.5h-2.06a.5.5 0 00-.5.5v15.44a.5.5 0 00.5.5h2.06zm22.597 0a.5.5 0 00.5-.5V1.09a.5.5 0 00-.5-.5h-2.34a.5.5 0 00-.464.313L81.442 6.6a52.923 52.923 0 00-2.171 6.517.032.032 0 01-.031.024.032.032 0 01-.032-.035c.117-1.463.233-3.042.292-4.62.058-1.592.176-3.183.176-4.656V1.09a.5.5 0 00-.5-.5h-2.06a.5.5 0 00-.5.5v15.44a.5.5 0 00.5.5h2.344a.5.5 0 00.462-.31l2.285-5.524c.82-1.939 1.467-3.936 2.17-6.517a.032.032 0 01.031-.024c.019 0 .033.016.032.035a283.818 283.818 0 00-.35 4.68c-.06 1.65-.177 3.3-.177 4.596v2.564a.5.5 0 00.5.5h2.119zm13.416 0a.5.5 0 00.5-.5v-1.416a.5.5 0 00-.5-.5h-4.59a.5.5 0 01-.5-.5v-4.068a.5.5 0 01.5-.5h4.12a.5.5 0 00.5-.5V7.63a.5.5 0 00-.5-.5h-4.12a.5.5 0 01-.5-.5V3.505a.5.5 0 01.5-.5h4.59a.5.5 0 00.5-.5V1.09a.5.5 0 00-.5-.5h-7.65a.5.5 0 00-.5.5v15.44a.5.5 0 00.5.5h7.65zm7.356 0a.5.5 0 00.5-.5v-6.484a.5.5 0 01.5-.5h3.296a.5.5 0 01.5.5v6.484a.5.5 0 00.5.5h2.06a.5.5 0 00.5-.5V1.09a.5.5 0 00-.5-.5h-2.06a.5.5 0 00-.5.5v5.54a.5.5 0 01-.5.5h-3.296a.5.5 0 01-.5-.5V1.09a.5.5 0 00-.5-.5h-2.06a.5.5 0 00-.5.5v15.44a.5.5 0 00.5.5h2.06zm18.803-2.914a.5.5 0 01-.5.498h-2.003a.5.5 0 01-.5-.5V1.089a.5.5 0 00-.5-.5h-2.06a.5.5 0 00-.5.5v15.44a.5.5 0 00.5.5h14.241a.5.5 0 00.5-.5V1.09a.5.5 0 00-.5-.5h-2.06a.5.5 0 00-.5.5v13.025a.5.5 0 01-.5.5h-2.001a.5.5 0 01-.5-.5V1.089a.5.5 0 00-.5-.5h-2.062a.5.5 0 00-.5.498l-.055 13.029zm15.651 2.914a.5.5 0 00.491-.404l.665-3.377a.5.5 0 01.491-.403h2.767a.5.5 0 01.49.403l.665 3.377a.5.5 0 00.491.404h2.257a.5.5 0 00.487-.612L147.025.978a.5.5 0 00-.487-.389h-3.327a.5.5 0 00-.486.384l-3.703 15.44a.5.5 0 00.486.617h2.25zm2.589-11.255c.176-.766.235-1.532.294-2.298 0-.344.056-.744.113-1.09a.035.035 0 01.034-.03c.017 0 .032.012.034.03.054.343.056.689.113 1.09.059.766.177 1.532.295 2.298l.719 4.068a.5.5 0 01-.492.587h-1.44a.5.5 0 01-.491-.6l.821-4.055zm12.446 11.255a.5.5 0 00.5-.5v-6.484a.5.5 0 01.5-.5h3.295a.5.5 0 01.5.5v6.484a.5.5 0 00.5.5h2.06a.5.5 0 00.5-.5V1.09a.5.5 0 00-.5-.5h-2.06a.5.5 0 00-.5.5v5.54a.5.5 0 01-.5.5h-3.295a.5.5 0 01-.5-.5V1.09a.5.5 0 00-.5-.5h-2.06a.5.5 0 00-.5.5v15.44a.5.5 0 00.5.5h2.06zm23.941.05a.5.5 0 00.509-.5v-1.407a.5.5 0 00-.5-.5h-.354a.5.5 0 01-.5-.5V1.089a.5.5 0 00-.5-.5h-2.06a.5.5 0 00-.5.5v13.025a.5.5 0 01-.5.5h-3.295a.5.5 0 01-.5-.5V1.089a.5.5 0 00-.5-.5h-2.06a.5.5 0 00-.5.5v15.44a.5.5 0 00.5.5h8.032l2.728.05zM61.67 39.126a.5.5 0 00.49-.403l.666-3.377a.5.5 0 01.49-.404h2.768a.5.5 0 01.49.404l.665 3.377a.5.5 0 00.49.403h2.26a.5.5 0 00.487-.61l-3.481-15.44a.5.5 0 00-.488-.39h-3.325a.5.5 0 00-.486.383l-3.703 15.44a.5.5 0 00.486.617h2.191zm2.648-11.255c.176-.766.235-1.532.294-2.298 0-.344.056-.744.113-1.09a.035.035 0 01.034-.03c.017 0 .031.013.034.03.054.343.056.689.113 1.09.059.766.176 1.532.294 2.298l.72 4.068a.5.5 0 01-.492.587h-1.44a.5.5 0 01-.49-.599l.82-4.056zm11.445 8.84a.5.5 0 01-.5-.5v-4.01a.5.5 0 01.5-.5h.677c1.883 0 2.236.766 2.236 2.534 0 .825-.118 1.886-.942 2.298-.53.236-1.177.177-1.824.177h-.147zm0-7.426a.5.5 0 01-.5-.5v-3.242a.5.5 0 01.5-.5h.912c1.412.059 1.648.648 1.648 1.885 0 .766-.06 1.356-.353 1.768-.471.59-1.471.59-2.178.59h-.03zm1.853 9.841c2.178 0 3.355-.884 4.06-2.946.177-.648.236-1.355.236-2.004 0-2.108-.64-3.576-2.38-3.825a.038.038 0 01-.032-.038c0-.015.01-.03.025-.035 1.626-.595 1.975-2.002 1.975-3.409 0-1.12-.117-2.062-.823-2.946-.883-1.12-2.178-1.178-3.472-1.178h-4.502a.5.5 0 00-.5.5V38.68a.5.5 0 00.505.5l4.909-.054zm5.355-14.583a.5.5 0 00.5.5h2.59a.5.5 0 01.5.5v13.024a.5.5 0 00.5.5h2.06a.5.5 0 00.5-.5V25.544a.5.5 0 01.5-.5h2.59a.5.5 0 00.5-.5v-1.416a.5.5 0 00-.5-.5h-9.24a.5.5 0 00-.5.5v1.416zm11.475 7.394c0 4.36.353 7.602 5.355 7.602 5.061 0 5.355-3.182 5.355-7.602V29.58c-.118-4.184-.471-7.307-5.355-7.307s-5.237 3.123-5.355 7.307v2.357zm3.178-3.064c0-1.296-.177-4.125 2.236-4.125 2.295 0 2.236 2.946 2.236 4.243v4.184c0 1.59 0 3.83-2.236 3.83-2.118 0-2.236-2.24-2.236-3.595v-4.537zm13.417 5.068c0-3.22-.059-6.496-.232-9.716a.063.063 0 01.125-.016l3.14 14.523a.5.5 0 00.489.394h1.076a.5.5 0 00.488-.395l3.146-14.606a.032.032 0 01.031-.025c.018 0 .033.015.032.033-.175 3.23-.234 6.519-.234 9.749v4.685a.5.5 0 00.5.5h2.06a.5.5 0 00.5-.5v-15.38a.5.5 0 00-.5-.5h-3.98a.5.5 0 00-.489.395l-1.563 7.265c-.233 1.054-.351 2.166-.468 3.742a.032.032 0 01-.064 0c-.118-1.285-.294-2.514-.586-3.742l-1.562-7.265a.501.501 0 00-.489-.395h-3.98a.5.5 0 00-.5.5v15.44a.5.5 0 00.5.5h2.06a.5.5 0 00.5-.5v-4.685zm15.594 5.185a.5.5 0 00.491-.403l.665-3.377a.5.5 0 01.49-.404h2.768a.5.5 0 01.49.404l.665 3.377a.5.5 0 00.491.403h2.259a.5.5 0 00.487-.61l-3.481-15.44a.5.5 0 00-.488-.39h-3.325a.5.5 0 00-.486.383l-3.703 15.44a.5.5 0 00.486.617h2.191zm2.648-11.255c.176-.766.235-1.532.294-2.298 0-.344.055-.744.113-1.09a.034.034 0 01.034-.03c.017 0 .031.013.034.03.054.343.056.689.113 1.09.059.766.176 1.532.294 2.298l.72 4.068a.5.5 0 01-.492.587h-1.441a.5.5 0 01-.49-.599l.821-4.056zm5.237-3.328a.5.5 0 00.5.5h2.589a.5.5 0 01.5.5v13.024a.5.5 0 00.5.5h2.06a.5.5 0 00.5-.5V25.544a.5.5 0 01.5-.5h2.59a.5.5 0 00.5-.5v-1.416a.5.5 0 00-.5-.5h-9.239a.5.5 0 00-.5.5v1.416zm21.979 14.583a.5.5 0 00.5-.5v-15.44a.5.5 0 00-.5-.5h-2.34a.5.5 0 00-.464.313l-2.287 5.697a53.023 53.023 0 00-2.171 6.517.03.03 0 01-.03.024.031.031 0 01-.032-.034c.117-1.464.233-3.043.291-4.621.059-1.591.177-3.182.177-4.655v-2.741a.5.5 0 00-.5-.5h-2.06a.5.5 0 00-.5.5v15.44a.5.5 0 00.5.5h2.343a.499.499 0 00.462-.309l2.285-5.525c.822-1.938 1.467-3.935 2.171-6.517a.032.032 0 01.031-.023.03.03 0 01.031.034 295.287 295.287 0 00-.35 4.68c-.059 1.65-.176 3.3-.176 4.596v2.564a.5.5 0 00.5.5h2.119zm6.002 0a.5.5 0 00.5-.5V34.55c0-.09.024-.179.071-.257l.493-.823a.5.5 0 01.886.054l2.36 5.305c.081.18.26.297.457.297h2.372a.5.5 0 00.456-.706l-3.812-8.43a.5.5 0 01.022-.455l3.503-6.1a.5.5 0 00-.434-.75h-2.311a.5.5 0 00-.439.262l-1.682 3.098c-.644 1.171-1.462 2.634-1.934 3.925a.035.035 0 01-.067-.012v-6.772a.5.5 0 00-.5-.5h-2.06a.5.5 0 00-.5.5v15.44a.5.5 0 00.5.5h2.119zm10.386 0a.5.5 0 00.491-.403l.665-3.377a.5.5 0 01.491-.404h2.767a.5.5 0 01.49.404l.665 3.377a.501.501 0 00.491.403h2.259a.5.5 0 00.488-.61l-3.482-15.44a.5.5 0 00-.488-.39h-3.325a.5.5 0 00-.486.383l-3.703 15.44a.5.5 0 00.486.617h2.191zm2.648-11.255c.176-.766.235-1.532.294-2.298 0-.344.056-.744.113-1.09a.035.035 0 01.034-.03c.017 0 .032.013.034.03.054.343.056.689.113 1.09.059.766.177 1.532.294 2.298l.72 4.068a.5.5 0 01-.492.587h-1.441a.5.5 0 01-.49-.599l.821-4.056zM61.14 19.829c0-.244.198-.442.442-.442h119.101a.442.442 0 010 .884H61.582a.442.442 0 01-.442-.442z" fill="#0072B4"/></g><defs><clipPath id="clip0"><path fill="#fff" d="M0 0h181.818v40H0z"/></clipPath></defs></svg>